<?xml version="1.0" standalone="no"?><svg xmlns="http://www.w3.org/2000/svg" viewBox="0 0 1440 320"><path fill="#0099ff" fill-opacity="1" d="M0,128L24,122.7C48,117,96,107,144,112C192,117,240,139,288,160C336,181,384,203,432,224C480,245,528,267,576,266.7C624,267,672,245,720,202.7C768,160,816,96,864,85.3C912,75,960,117,1008,160C1056,203,1104,245,1152,272C1200,299,1248,309,1296,293.3C1344,277,1392,235,1416,213.3L1440,192L1440,0L1416,0C1392,0,1344,0,1296,0C1248,0,1200,0,1152,0C1104,0,1056,0,1008,0C960,0,912,0,864,0C816,0,768,0,720,0C672,0,624,0,576,0C528,0,480,0,432,0C384,0,336,0,288,0C240,0,192,0,144,0C96,0,48,0,24,0L0,0Z"></path></svg>